# xmcd
#
# Track frame offsets:
#	150
#	18021
#	28896
#	47256
#	63935
#	80835
#	99915
#	116008
#	138914
#	153372
#	170468
#	186925
#	202840
#	231681
#
# Disc length: 3424 seconds
#
# Revision: 1
# Processed by: cddbd v1.5.2PL0 Copyright (c) Steve Scherf et al.
# Submitted via: EasyCDDAExtractor 16.0.8.2
#
DISCID=b10d5e0e
DTITLE=Παπαεμμανουήλ Γρηγόρης-Παπαεμμανουήλ Πέτρος - Καλώς ανταμωθήκαμε
DYEAR=1999
DGENRE=Παραδοσιακή
TTITLE0=Αλέξης αντρειωμένος
TTITLE1=Μιά καλή γειτονοπούλα
TTITLE2=Καλώς ανταμωθήκαμε
TTITLE3=Το προσφυγάκι
TTITLE4=Τα παιδιά της γειτονιάς σου
TTITLE5=Ο γεμετζής
TTITLE6=Ιδιρνιλούδα
TTITLE7=Σαν τα μάρμαρα της Πόλης
TTITLE8=Τί 'θελα και σ 'αγαπούσα
TTITLE9=Τζιβαέρι
TTITLE10=Τι σε μέλλει εσένανε
TTITLE11=Από ξένο τόπο
TTITLE12=Μοναχογιός ο Κωνσταντής
TTITLE13=Σ' αγαπώ
EXTD=
EXTT0=
EXTT1=
EXTT2=
EXTT3=
EXTT4=
EXTT5=
EXTT6=
EXTT7=
EXTT8=
EXTT9=
EXTT10=
EXTT11=
EXTT12=
EXTT13=
PLAYORDER=
